<svg width="24" height="25" viewBox="0 0 24 25" fill="none" xmlns="http://www.w3.org/2000/svg">
<rect width="24.0002" height="24.0002" rx="3" fill="white"/>
<path d="M21.0002 3.00212V21.0002L15.0001 20.9981V24.0002L21.0002 24.0023C22.8937 24.0023 24.0002 22.8958 24.0002 21.0023V3.00421C24.0002 1.11065 22.8937 0.00209795 21.0002 0.00209795L15.0001 -1.55895e-05V3.00001L21.0002 3.00212Z" fill="#161616"/>
<path d="M3.00002 21.0023V3.00212L9.00007 3.00002V3.30622e-07L3.00002 0.00209843C1.10646 0.00209843 0 1.11065 0 3.00421V21.0043C0 22.8979 1.10646 24.0023 3.00002 24.0023L9.00007 24.0002V21.0002L3.00002 21.0023Z" fill="#161616"/>
<rect x="8.00006" y="8.00422" width="8.00006" height="8.00006" fill="#161616"/>
</svg>
