<svg width="16" height="16" viewBox="0 0 16 16" fill="none" xmlns="http://www.w3.org/2000/svg">
<path d="M15.7816 0.217684C15.6371 0.073243 15.4285 0 15.1615 0C14.2238 0 12.7038 0.912316 11.8812 1.45613L11.816 1.49928L11.629 2.97501L11.1342 1.97163L10.9704 2.09163C9.91305 2.86674 8.84545 3.77892 7.96434 4.66008C7.80263 4.82177 7.64347 4.98621 7.49124 5.14882L7.45968 5.18249L6.79896 8.09078L6.45107 6.3553L6.22253 6.66845C6.08777 6.85311 5.96062 7.0377 5.84458 7.21714L5.82348 7.24976L5.54198 9.47098L5.10251 8.57976L4.98204 9.00712C4.82264 9.57258 4.82489 10.0495 4.98367 10.4137L3.12476 12.2727C2.95841 12.4391 2.95841 12.7088 3.12476 12.8752C3.20795 12.9584 3.31697 13 3.426 13C3.53502 13 3.64404 12.9584 3.72723 12.8752L5.58536 11.017C5.76749 11.0966 5.97834 11.1369 6.21646 11.1369C6.21649 11.1369 6.21649 11.1369 6.21653 11.1369C6.45127 11.1369 6.7124 11.0968 6.99261 11.0178L7.41997 10.8974L6.52874 10.4579L8.74982 10.1763L8.7824 10.1552C8.96146 10.0395 9.14604 9.91231 9.3311 9.77727L9.64426 9.54875L7.90889 9.20081L10.817 8.54002L10.8507 8.50846C11.0137 8.3558 11.1782 8.19664 11.3395 8.03532C12.5724 6.80233 13.797 5.28706 14.6994 3.87803L15.1932 3.05726L15.1959 3.05262C16.0102 1.59717 16.2072 0.643339 15.7816 0.217684Z" fill="#7D7D7D"/>
<rect y="14" width="16" height="2" rx="1" fill="#7D7D7D"/>
<rect width="2" height="16" rx="1" fill="#7D7D7D"/>
<rect width="6" height="2" rx="1" fill="#7D7D7D"/>
<rect x="14" y="10" width="2" height="6" rx="1" fill="#7D7D7D"/>
</svg>
