<svg width="97" height="97" viewBox="0 0 97 97" fill="none" xmlns="http://www.w3.org/2000/svg">
<circle cx="48.5" cy="48.5" r="48.5" fill="white"/>
<path d="M97 48.5C97 75.2858 75.2858 97 48.5 97C21.7142 97 0 75.2858 0 48.5C0 21.7142 21.7142 0 48.5 0C75.2858 0 97 21.7142 97 48.5ZM4.85 48.5C4.85 72.6072 24.3928 92.15 48.5 92.15C72.6072 92.15 92.15 72.6072 92.15 48.5C92.15 24.3928 72.6072 4.85 48.5 4.85C24.3928 4.85 4.85 24.3928 4.85 48.5Z" fill="black"/>
<path d="M86 49C86 69.9868 68.9868 87 48 87C27.0132 87 10 69.9868 10 49C10 28.0132 27.0132 11 48 11C68.9868 11 86 28.0132 86 49ZM15.7 49C15.7 66.8388 30.1612 81.3 48 81.3C65.8388 81.3 80.3 66.8388 80.3 49C80.3 31.1612 65.8388 16.7 48 16.7C30.1612 16.7 15.7 31.1612 15.7 49Z" fill="black"/>
<path d="M68.6525 68.6525C66.0061 71.299 62.8643 73.3983 59.4065 74.8306C55.9487 76.2628 52.2427 77 48.5 77C44.7573 77 41.0513 76.2628 37.5935 74.8306C34.1357 73.3983 30.9939 71.299 28.3475 68.6525L32.378 64.622C34.4951 66.7392 37.0086 68.4186 39.7748 69.5645C42.541 70.7103 45.5059 71.3 48.5 71.3C51.4941 71.3 54.459 70.7103 57.2252 69.5645C59.9914 68.4186 62.5049 66.7392 64.622 64.622L68.6525 68.6525Z" fill="black"/>
<path d="M28.3475 29.3475C30.9939 26.701 34.1357 24.6017 37.5935 23.1694C41.0513 21.7372 44.7573 21 48.5 21C52.2427 21 55.9487 21.7372 59.4065 23.1694C62.8643 24.6017 66.0061 26.701 68.6525 29.3475L64.622 33.378C62.5049 31.2608 59.9914 29.5814 57.2252 28.4355C54.459 27.2897 51.4941 26.7 48.5 26.7C45.5059 26.7 42.541 27.2897 39.7748 28.4355C37.0086 29.5814 34.4951 31.2608 32.378 33.378L28.3475 29.3475Z" fill="black"/>
<path d="M63 49.5C63 57.5081 56.5081 64 48.5 64C40.4919 64 34 57.5081 34 49.5C34 41.4919 40.4919 35 48.5 35C56.5081 35 63 41.4919 63 49.5ZM39.8 49.5C39.8 54.3049 43.6951 58.2 48.5 58.2C53.3049 58.2 57.2 54.3049 57.2 49.5C57.2 44.6951 53.3049 40.8 48.5 40.8C43.6951 40.8 39.8 44.6951 39.8 49.5Z" fill="black"/>
<path d="M29 47H39V52H29V47Z" fill="black"/>
<rect x="58" y="47" width="10" height="5" fill="black"/>
<rect x="64.62" y="33.38" width="5.49786" height="24.1381" transform="rotate(-135 64.62 33.38)" fill="black"/>
<rect x="36.25" y="29.5" width="5.49786" height="24.1381" transform="rotate(135 36.25 29.5)" fill="black"/>
<rect x="32.39" y="64.62" width="5.49786" height="24.1381" transform="rotate(45 32.39 64.62)" fill="black"/>
<rect x="60.73" y="68.51" width="5.49786" height="24.1381" transform="rotate(-45 60.73 68.51)" fill="black"/>
</svg>
