<svg width="16" height="16" xmlns="http://www.w3.org/2000/svg" fill="none">
 <g>
  <title>Layer 1</title>
  <g id="svg_6">
   <rect y="3.69563" width="8.61268" height="8.61268" rx="0.5" fill="#ffffff" id="svg_1" x="0"/>
   <path d="m0.49971,8.50687c-0.27681,-0.27968 -0.27681,-0.7301 0,-1.00978l6.88513,-6.95648c0.45106,-0.45574 1.22784,-0.13632 1.22784,0.50488l0,13.91295c0,0.64121 -0.77678,0.9606 -1.22784,0.50485l-6.88513,-6.95642z" fill="#ffffff" id="svg_2"/>
   <path d="m10.48433,5.51566c0.03442,-0.19519 0.22158,-0.32768 0.41094,-0.2692c0.53331,0.1647 1.00978,0.48227 1.36811,0.91695c0.4348,0.52747 0.66714,1.19276 0.65521,1.87623c-0.01194,0.68346 -0.26735,1.34023 -0.72029,1.8522c-0.37329,0.42192 -0.86054,0.72266 -1.39927,0.86865c-0.1913,0.05183 -0.3737,-0.0871 -0.40129,-0.28337l-0.09989,-0.71073c-0.02757,-0.19627 0.11221,-0.3737 0.29554,-0.44899c0.20165,-0.08281 0.38331,-0.21108 0.52984,-0.3767c0.22647,-0.25598 0.35417,-0.58437 0.36014,-0.92611c0.00596,-0.34172 -0.1102,-0.67437 -0.32761,-0.93811c-0.14065,-0.17063 -0.31772,-0.30516 -0.51636,-0.39496c-0.18059,-0.08163 -0.3141,-0.26385 -0.27968,-0.45903l0.12463,-0.70681z" fill="#ffffff" id="svg_3"/>
   <path fill="#ffffff" d="m10.98286,2.68025c0.03442,-0.19518 0.22092,-0.32664 0.41358,-0.2801c1.20606,0.29134 2.28888,0.96666 3.08219,1.92902c0.86959,1.05491 1.33425,2.3855 1.31042,3.75243c-0.02383,1.36693 -0.5347,2.6805 -1.44059,3.70441c-0.82642,0.93407 -1.93214,1.57127 -3.14765,1.82032c-0.19416,0.03976 -0.37596,-0.09818 -0.40355,-0.29441l-0.13984,-0.99505c-0.02757,-0.19624 0.10971,-0.3761 0.30274,-0.42107c0.80939,-0.18856 1.54364,-0.62435 2.09819,-1.25116c0.63414,-0.71675 0.99171,-1.63624 1.0084,-2.59309c0.01671,-0.95685 -0.30855,-1.88826 -0.91728,-2.62671c-0.53235,-0.64579 -1.25095,-1.10693 -2.05325,-1.32364c-0.19133,-0.05168 -0.32227,-0.23622 -0.28785,-0.43139l0.17448,-0.98955z" id="svg_4"/>
  </g>
 </g>

</svg>